<svg xmlns="http://www.w3.org/2000/svg" xmlns:xlink="http://www.w3.org/1999/xlink" width="136" height="140" viewBox="0 0 136 140">
  <defs>
    <clipPath id="clip-path">
      <path id="Path_5619" data-name="Path 5619" d="M23.98,37.077,66.81,7.448l46.183-2.607C128.447,2.32,132.472,31.274,134.2,47.628l1.628,33.307c1.737,16.439-9.908,31.144-25.582,32.3L42.132,123.553l-2.175-2.17-10.612,1.23C13.251,123.8-.3,110.238.005,93.246l.521-27.9c.255-14.156,10.165-26.1,23.453-28.27" transform="translate(0 -4.687)" fill="#ee346f"/>
    </clipPath>
    <clipPath id="clip-path-2">
      <path id="Path_5621" data-name="Path 5621" d="M7.92,0H128.234V108.846H7.92L0,73.168Z" fill="none"/>
    </clipPath>
    <clipPath id="clip-path-3">
      <path id="Path_5598" data-name="Path 5598" d="M.065,8.535s10.087,3.518,12.409-5.049A5.294,5.294,0,0,0,8.337.2a9.323,9.323,0,0,0-1.9-.2C2.4,0-.472,2.966.065,8.535" fill="none"/>
    </clipPath>
    <clipPath id="clip-path-4">
      <rect id="Rectangle_1770" data-name="Rectangle 1770" width="120.314" height="108.846" fill="none"/>
    </clipPath>
    <clipPath id="clip-path-6">
      <path id="Path_5842" data-name="Path 5842" d="M12.409,8.535S.479,11.636,0,2.232C0,2.232.77.906,4.136.2c4.991-1.04,8.891,1.922,8.273,8.331" fill="none" stroke="#707070" stroke-width="1"/>
    </clipPath>
  </defs>
  <g id="Group_6291" data-name="Group 6291" transform="translate(-0.5 5)">
    <text id="Cats" transform="translate(16 116)" fill="#484f81" font-size="14" font-family="Roboto-Bold, Roboto" font-weight="700"><tspan x="-14" y="15">Cats</tspan></text>
    <g id="Group_7644" data-name="Group 7644">
      <g id="Group_5668" data-name="Group 5668" transform="translate(0.5 -5)">
        <path id="Path_5479" data-name="Path 5479" d="M23.937,39.558l76.489-17.5c15.426-2.51,29.687,8.942,31.412,25.226l3.746,35.946c1.734,16.368-9.891,31.01-25.536,32.162l-80.756,9.336C13.227,125.909-.3,112.4.005,95.485l.52-27.779c.254-14.1,10.147-25.989,23.411-28.148" transform="translate(0 -6.824)" fill="#fff"/>
        <g id="Mask_Group_3" data-name="Mask Group 3" transform="translate(0)" clip-path="url(#clip-path)">
          <g id="Group_5667" data-name="Group 5667" transform="translate(-15.005 25.549) rotate(-10)">
            <g id="Group_5768" data-name="Group 5768" transform="translate(45.525 18.902) rotate(-11)">
              <path id="Path_5892" data-name="Path 5892" d="M0,21.57A36.3,36.3,0,0,1,12.473,7.814C20.973,2.516,19.116-1.238,34,.38c7.639.831,13.092,9.1,25.024,11.314,17.906,3.329,28.177,13.52,28.91,20.9,0,0,.927,2.668-1.887,6.723s-2.872,1.078-9.369,9.5S63.259,66.077,55.5,64.159c0,0-32.111-7.983-55.5-42.589" transform="translate(0 13.779) rotate(-9)" fill="#484f81"/>
            </g>
            <g id="Group_5658" data-name="Group 5658" transform="translate(0 0)">
              <g id="Mask_Group_4" data-name="Mask Group 4" clip-path="url(#clip-path-2)">
                <path id="Path_5577" data-name="Path 5577" d="M89.082,36.967,36,0,9.55.013,0,12.829,11.212,59.573s19.177-3.362,30.54-11.535q-.458.558-.946,1.127c-3.362,3.923,2.318,3.083,4.323,1.761,2.728-1.8,8.059-4.4,8.059-4.4-.4,1.2-5.331,7.019,5.657.828,2.647-1.491,16.524-6.334,16.524-6.334,1.455-.255,2.842-.495,4.138-.716-1.253,2.762-.828,5.826.36,5.891,1.521.084,3.842-4.021,3.842-4.021-.29,2.073,2.534,2.009,2.751.335.3-2.29,4.382-4.389,4.382-4.389a10.607,10.607,0,0,0-1.76-1.15" transform="translate(-3.292 49.273)" fill="#f58433"/>
                <path id="Path_5578" data-name="Path 5578" d="M4.4,41.372,3.14,39.4a30.757,30.757,0,0,0,.628-4.552c0-1.57-3.222-12.571-2.594-19.725S-.627,7.223.158,4.635A22.279,22.279,0,0,1,2.2,0L50.465,27.554l7.142,3.061L83.173,57.3H77.542l.708,2.041s-14.421-5.188-22-8.319c-8.36-3.453-50.6-10.35-51.851-9.649" transform="translate(12.301 29.293)" fill="#fff"/>
                <path id="Path_5579" data-name="Path 5579" d="M0,0,12.557,12.417S27.783,18.3,36.1,22.933s26.7,13.5,26.7,13.5L12.243,18.643Z" transform="translate(14.97 42.468)" fill="#626bb1"/>
                <path id="Path_5580" data-name="Path 5580" d="M1.1,0,0,2.852H6.435L7.8,4.635s34.742,2.9,63.78,15.927C71.576,20.562,38.3,1.533,1.1,0" transform="translate(18.267 66.029)" fill="#626bb1"/>
                <path id="Path_5581" data-name="Path 5581" d="M0,0V3.025a10.874,10.874,0,0,1,.942,2.2c.157.785.785,3.3.785,3.3S7.22,12.161,14.441,20.7c0,0,1.727-.408,1.413-1.507S0,0,0,0" transform="translate(14.97 31.611)" fill="#626bb1"/>
                <path id="Path_5582" data-name="Path 5582" d="M0,0,12.557,12.417S31.5,20.484,36.1,22.933" transform="translate(14.97 42.468)" fill="none" stroke="#626bb1" stroke-linecap="round" stroke-linejoin="round" stroke-width="1"/>
                <path id="Path_5583" data-name="Path 5583" d="M0,0A125.9,125.9,0,0,1,16.874,2.852" transform="translate(24.702 66.029)" fill="none" stroke="#626bb1" stroke-linecap="round" stroke-linejoin="round" stroke-width="1"/>
                <line id="Line_214" data-name="Line 214" x2="10.95" y2="15.24" transform="translate(26.433 38.587)" fill="none" stroke="#626bb1" stroke-linecap="round" stroke-linejoin="round" stroke-width="1"/>
                <line id="Line_215" data-name="Line 215" x2="7.647" y2="11.246" transform="translate(34.364 43.929)" fill="none" stroke="#626bb1" stroke-linecap="round" stroke-linejoin="round" stroke-width="1"/>
                <line id="Line_216" data-name="Line 216" x2="4.703" y2="5.73" transform="translate(46.37 52.311)" fill="none" stroke="#626bb1" stroke-linecap="round" stroke-linejoin="round" stroke-width="1"/>
                <path id="Path_5584" data-name="Path 5584" d="M0,0S9.127,4.8,1.761,17.453" transform="translate(22.463 80.986)" fill="none" stroke="#626bb1" stroke-linecap="round" stroke-linejoin="round" stroke-width="1"/>
                <path id="Path_5585" data-name="Path 5585" d="M0,0S3.683,1.14,3.683,4.182" transform="translate(36.714 77.925)" fill="none" stroke="#626bb1" stroke-linecap="round" stroke-linejoin="round" stroke-width="1"/>
                <path id="Path_5586" data-name="Path 5586" d="M82.7,56.505a42.56,42.56,0,0,0,.006-6.9,26.731,26.731,0,0,0,1.761-28.821c-.757-1.513.967-10.758,2.167-16.608a2.36,2.36,0,0,0-3.436-2.512A26.422,26.422,0,0,0,72.782,9.934c-11.528-.64-17.453.8-17.453.8C50.984,5.394,46.537,1.376,44.042.221a2.335,2.335,0,0,0-3.277,1.594c-1.6,7.514,2.681,19.021,2.681,19.021-3.389,2.562-5.471,11.1-5.257,16.652.059,1.52-1.932,2.82-4.173,3.8a4.279,4.279,0,0,1-2.362-2.026c-2.368-4.264-2.059.527-2.059.527l.029,1.3a4.408,4.408,0,0,1-3.191-1.824c-1.994-2.384-4.426-1.567-3.573,0a5.917,5.917,0,0,0,4.274,2.911c-1.32.348-5.146-.176-5.748.178-.529.311,2.308.489,3.124,1.587-2.648.425-6,.7-6.871-.425-1.494-1.931-5.709-4.1-5.709-4.1C7.874,38.235,0,42.7,0,42.7l11.52,6.576,13.62,7.775c-1.281.56-3.6,4.243-3.6,4.243-1.761.641-.936,3.2-.936,3.2a2.9,2.9,0,0,0,.216,2.8c-.8,1.361.881,3.2.881,3.2.641,1.441,4.243.56,4.243.56,2.722,1.6,6.645-.16,7.445-.56s2.722,1.841,3.843,1.841,7.211,4.643,9.292,7.045,8.761,10.327,10.4,10.888c.758.259,10.568-2.4,11.849-3.042s2.082-2.4,2.562-5.924,5.924-9.286,9.127-15.691a17.318,17.318,0,0,0,.88-2.126c.774,1.454,1.3,3.121,1.518,1.524a6.084,6.084,0,0,0-.91-3.638c.023-.1.047-.192.069-.288,2.7,2.441,4.585.913,2.693-1.33a11.888,11.888,0,0,1-2.014-3.25" transform="translate(36.151 0)" fill="#f58433"/>
                <path id="Path_5587" data-name="Path 5587" d="M.09,11.225C.681,8.809,1.81,5.047,8.509.271c.886-.632,2.066-.1,1.844.968-.9,4.354-2.33,11.623-2.255,13.876.088,2.653-5.526-.935-7.7-2.422-.48-.328-.445-.9-.307-1.468" transform="translate(111.248 3.932)" fill="#f8f8f8"/>
                <path id="Path_5588" data-name="Path 5588" d="M11.391,10.376C10.972,8.857,4.524,1.932,1.674.348.55-.277.356-.181.132,1.638a30.129,30.129,0,0,0,1.01,10.631c.012.048.025.1.039.144l.96,3.191a2.563,2.563,0,0,0,3.106,1.742c1.617-.426,1.814-1.095,5.412-4.466a2.53,2.53,0,0,0,.732-2.5" transform="translate(77.688 2.352)" fill="#f8f8f8"/>
                <path id="Path_5589" data-name="Path 5589" d="M0,5.369S2.409,1.067,5.5,0" transform="translate(61.685 65.775)" fill="none" stroke="#626bb1" stroke-linecap="round" stroke-linejoin="round" stroke-width="1"/>
                <path id="Path_5590" data-name="Path 5590" d="M0,4.688S3.281,1.067,6.483,0" transform="translate(56.757 63.32)" fill="none" stroke="#626bb1" stroke-linecap="round" stroke-linejoin="round" stroke-width="1"/>
                <path id="Path_5591" data-name="Path 5591" d="M0,3.1S1.791.534,3.819,0" transform="translate(56.752 61.398)" fill="none" stroke="#626bb1" stroke-linecap="round" stroke-linejoin="round" stroke-width="1"/>
                <path id="Path_5592" data-name="Path 5592" d="M0,.04S7.095-.551,10.571,2.821" transform="translate(97.171 61.118)" fill="none" stroke="#626bb1" stroke-linecap="round" stroke-linejoin="round" stroke-width="1"/>
                <path id="Path_5593" data-name="Path 5593" d="M0,0S8.112,6.992,9.874,12.756" transform="translate(94.889 62.946)" fill="none" stroke="#626bb1" stroke-linecap="round" stroke-linejoin="round" stroke-width="1"/>
                <path id="Path_5594" data-name="Path 5594" d="M0,1.042A18.686,18.686,0,0,1,5.9.051c3.9-.2,9.885.119,18.409,2.109" transform="translate(61.292 56.006)" fill="none" stroke="#626bb1" stroke-linecap="round" stroke-linejoin="round" stroke-width="1"/>
                <line id="Line_217" data-name="Line 217" y1="1.373" x2="1.511" transform="translate(107.135 25.218)" fill="none" stroke="#626bb1" stroke-linecap="round" stroke-linejoin="round" stroke-width="1"/>
                <line id="Line_218" data-name="Line 218" y1="1.029" x2="1.164" transform="translate(109.163 25.562)" fill="none" stroke="#626bb1" stroke-linecap="round" stroke-linejoin="round" stroke-width="1"/>
                <line id="Line_219" data-name="Line 219" x2="1.381" y2="2.228" transform="translate(93.657 22.99)" fill="none" stroke="#626bb1" stroke-linecap="round" stroke-linejoin="round" stroke-width="1"/>
                <line id="Line_220" data-name="Line 220" x2="0.914" y2="1.144" transform="translate(92.815 24.418)" fill="none" stroke="#626bb1" stroke-linecap="round" stroke-linejoin="round" stroke-width="1"/>
                <path id="Path_5595" data-name="Path 5595" d="M.065,8.535s10.087,3.517,12.409-5.049A5.294,5.294,0,0,0,8.337.2C3.347-.836-.553,2.126.065,8.535" transform="translate(102.937 28.264)" fill="#fff"/>
              </g>
            </g>
            <g id="Group_5660" data-name="Group 5660" transform="translate(102.937 28.264)">
              <g id="Group_5659" data-name="Group 5659" transform="translate(0 0)" clip-path="url(#clip-path-3)">
                <path id="Path_5596" data-name="Path 5596" d="M6.08,5.092c0,2.356-1.361,4.265-3.04,4.265S0,7.448,0,5.092.662-.036,3.216,0c3,.084,2.864,2.736,2.864,5.092" transform="translate(4.075 2.113)" fill="#484f81"/>
                <path id="Path_5597" data-name="Path 5597" d="M.889,1.007c0,.556-.2,1.007-.444,1.007S0,1.563,0,1.007.2,0,.445,0,.889.451.889,1.007" transform="translate(8.087 4.984)" fill="#fff"/>
              </g>
            </g>
            <g id="Group_5662" data-name="Group 5662" transform="translate(7.92)">
              <g id="Group_5661" data-name="Group 5661" clip-path="url(#clip-path-4)">
                <path id="Path_5599" data-name="Path 5599" d="M12.409,8.535S.479,11.636,0,2.232C0,2.232.77.906,4.136.2c4.991-1.04,8.891,1.922,8.273,8.331" transform="translate(74.11 27.636)" fill="#fff"/>
              </g>
            </g>
            <path id="Path_5602" data-name="Path 5602" d="M4.137.2A5.259,5.259,0,0,0,0,3.425c2.322,8.416,12.409,4.96,12.409,4.96C12.946,2.915,10.073,0,6.037,0a9.483,9.483,0,0,0-1.9.2" transform="translate(82.03 27.636)" fill="none"/>
            <g id="Group_5666" data-name="Group 5666" transform="translate(7.92)">
              <g id="Group_5665" data-name="Group 5665" clip-path="url(#clip-path-4)">
                <path id="Path_5603" data-name="Path 5603" d="M4.1,1.4,2.8,2.7a.821.821,0,0,1-1.139.022L.265,1.432A.822.822,0,0,1,.821.007L3.521,0A.822.822,0,0,1,4.1,1.4" transform="translate(89.467 38.052)" fill="#ee346f"/>
                <path id="Path_5604" data-name="Path 5604" d="M0,2.388S7.766,1.748,10.411,0" transform="translate(109.729 33.271)" fill="none" stroke="#626bb1" stroke-linecap="round" stroke-linejoin="round" stroke-width="1"/>
                <path id="Path_5605" data-name="Path 5605" d="M0,.253S5.856,1.549,9.77,0" transform="translate(109.729 38.994)" fill="none" stroke="#626bb1" stroke-linecap="round" stroke-linejoin="round" stroke-width="1"/>
                <path id="Path_5606" data-name="Path 5606" d="M0,0S4.019,3.706,8.109,2.851" transform="translate(108.588 42.329)" fill="none" stroke="#626bb1" stroke-linecap="round" stroke-linejoin="round" stroke-width="1"/>
                <path id="Path_5607" data-name="Path 5607" d="M10.066,4.2A17.193,17.193,0,0,1,0,0" transform="translate(62.151 32.262)" fill="none" stroke="#626bb1" stroke-linecap="round" stroke-linejoin="round" stroke-width="1"/>
                <ellipse id="Ellipse_148" data-name="Ellipse 148" cx="6.535" cy="6.535" rx="6.535" ry="6.535" transform="translate(93.745 28.936)" fill="none" stroke="#626bb1" stroke-width="1"/>
                <path id="Path_5608" data-name="Path 5608" d="M0,1.28a2.922,2.922,0,0,1,4.974.228" transform="translate(88.968 35.56)" fill="none" stroke="#626bb1" stroke-width="1"/>
                <line id="Line_221" data-name="Line 221" y1="11.514" x2="4.968" transform="translate(106.814 23.957)" fill="none" stroke="#626bb1" stroke-linecap="round" stroke-width="1"/>
                <path id="Path_5609" data-name="Path 5609" d="M0,0,1.656,1.408l.112,1.8L.129,4.969" transform="translate(89.971 39.489)" fill="none" stroke="#626bb1" stroke-linecap="round" stroke-linejoin="round" stroke-width="1"/>
                <line id="Line_222" data-name="Line 222" x2="1.628" y2="1.761" transform="translate(91.739 42.697)" fill="none" stroke="#626bb1" stroke-linecap="round" stroke-linejoin="round" stroke-width="1"/>
                <line id="Line_223" data-name="Line 223" x1="1.703" y2="1.433" transform="translate(91.627 39.464)" fill="none" stroke="#626bb1" stroke-linecap="round" stroke-linejoin="round" stroke-width="1"/>
                <line id="Line_224" data-name="Line 224" x1="4.554" y1="10.942" transform="translate(71.506 24.529)" fill="none" stroke="#626bb1" stroke-linecap="round" stroke-linejoin="round" stroke-width="1"/>
                <path id="Path_5610" data-name="Path 5610" d="M3.618,0S14.941,16.465,49.186,11.5l.087,5.5S19.3,25.067,0,2.939C0,2.939,3.092,1.468,3.618,0" transform="translate(62.792 38.102)" fill="#f8f8f8"/>
                <path id="Path_5611" data-name="Path 5611" d="M10.566,1.307S4.79,2.661,0,0" transform="translate(62.791 38.236)" fill="none" stroke="#626bb1" stroke-linecap="round" stroke-linejoin="round" stroke-width="1"/>
                <line id="Line_225" data-name="Line 225" x2="0.697" y2="2.322" transform="translate(93.33 87.39)" fill="none" stroke="#626bb1" stroke-linecap="round" stroke-linejoin="round" stroke-width="1"/>
                <line id="Line_226" data-name="Line 226" x2="1.2" y2="0.891" transform="translate(95.017 87.39)" fill="none" stroke="#626bb1" stroke-linecap="round" stroke-linejoin="round" stroke-width="1"/>
                <line id="Line_227" data-name="Line 227" x2="1.114" y2="2.081" transform="translate(52.651 46.561)" fill="none" stroke="#626bb1" stroke-linecap="round" stroke-linejoin="round" stroke-width="1"/>
                <line id="Line_228" data-name="Line 228" x2="0.862" y2="0.471" transform="translate(49.88 47.131)" fill="none" stroke="#626bb1" stroke-linecap="round" stroke-linejoin="round" stroke-width="1"/>
                <path id="Path_5612" data-name="Path 5612" d="M0,4.778S3.589-.837,5.084.107,4.1,4.778,4.1,4.778s5.355-.823,3.226.464C5.644,6.257,4.268,6.378,3.948,7.925,3.623,9.493,0,4.778,0,4.778" transform="translate(102.407 11.857)" fill="#f58433"/>
                <path id="Path_5613" data-name="Path 5613" d="M8.82,4.51S3.961-.149,3.112,0,1.354,1.331,1.674,1.971s4,3.3,4,3.3S.78,4.347.173,5.04c-.7.8.849,2.226,2.348,3.168,0,0-.934,1.494-.254,1.815s4.1-.8,4.1-.8Z" transform="translate(75.32 8.784)" fill="#f58433"/>
                <line id="Line_229" data-name="Line 229" x1="0.952" y2="2.081" transform="translate(49.789 89.152)" fill="none" stroke="#626bb1" stroke-linecap="round" stroke-linejoin="round" stroke-width="1"/>
                <line id="Line_230" data-name="Line 230" x1="0.961" y2="1.138" transform="translate(46.886 89.152)" fill="none" stroke="#626bb1" stroke-linecap="round" stroke-linejoin="round" stroke-width="1"/>
                <line id="Line_231" data-name="Line 231" x1="1.11" y2="1.161" transform="translate(43.204 88.551)" fill="none" stroke="#626bb1" stroke-linecap="round" stroke-linejoin="round" stroke-width="1"/>
                <line id="Line_232" data-name="Line 232" x2="0.749" y2="2.081" transform="translate(77.586 74.061)" fill="none" stroke="#626bb1" stroke-linecap="round" stroke-linejoin="round" stroke-width="1"/>
                <line id="Line_233" data-name="Line 233" x2="1.633" y2="1.041" transform="translate(81.245 75.622)" fill="none" stroke="#626bb1" stroke-linecap="round" stroke-linejoin="round" stroke-width="1"/>
                <line id="Line_234" data-name="Line 234" x2="1.248" y2="0.52" transform="translate(2.728 76.142)" fill="none" stroke="#626bb1" stroke-linecap="round" stroke-linejoin="round" stroke-width="1"/>
                <line id="Line_235" data-name="Line 235" x2="0.641" y2="1.041" transform="translate(3.975 74.581)" fill="none" stroke="#626bb1" stroke-linecap="round" stroke-linejoin="round" stroke-width="1"/>
                <line id="Line_236" data-name="Line 236" x2="1.888" y2="1.281" transform="translate(2.728 104.203)" fill="none" stroke="#626bb1" stroke-linecap="round" stroke-linejoin="round" stroke-width="1"/>
                <line id="Line_237" data-name="Line 237" x1="0.187" y2="0.641" transform="translate(7.951 103.562)" fill="none" stroke="#626bb1" stroke-linecap="round" stroke-linejoin="round" stroke-width="1"/>
                <line id="Line_238" data-name="Line 238" x1="0.16" y2="0.48" transform="translate(10.94 102.922)" fill="none" stroke="#626bb1" stroke-linecap="round" stroke-linejoin="round" stroke-width="1"/>
                <path id="Path_5614" data-name="Path 5614" d="M0,.081a47.283,47.283,0,0,1,5.255,0" transform="translate(104.325 18.784)" fill="none" stroke="#626bb1" stroke-linecap="round" stroke-linejoin="round" stroke-width="1"/>
                <path id="Path_5615" data-name="Path 5615" d="M6.925,4.432S1.481-.106,0,0" transform="translate(74.066 9.625)" fill="none" stroke="#626bb1" stroke-linecap="round" stroke-linejoin="round" stroke-width="1"/>
                <path id="Path_5616" data-name="Path 5616" d="M4.932,1.407A11.908,11.908,0,0,0,0,0" transform="translate(75.494 13.825)" fill="none" stroke="#626bb1" stroke-linecap="round" stroke-linejoin="round" stroke-width="1"/>
                <path id="Path_5617" data-name="Path 5617" d="M0,.375s1.631-.844,2.7,0" transform="translate(37.117 46.943)" fill="none" stroke="#626bb1" stroke-linecap="round" stroke-linejoin="round" stroke-width="1"/>
                <line id="Line_239" data-name="Line 239" x2="0.573" y2="1.426" transform="translate(32.438 40.115)" fill="none" stroke="#626bb1" stroke-linecap="round" stroke-linejoin="round" stroke-width="1"/>
                <line id="Line_240" data-name="Line 240" y2="1.161" transform="translate(34.35 39.534)" fill="none" stroke="#626bb1" stroke-linecap="round" stroke-linejoin="round" stroke-width="1"/>
                <line id="Line_241" data-name="Line 241" x2="1.503" y2="1.215" transform="translate(101.825 56.474)" fill="none" stroke="#626bb1" stroke-linecap="round" stroke-linejoin="round" stroke-width="1"/>
                <line id="Line_242" data-name="Line 242" x2="3.165" y2="0.774" transform="translate(104.325 56.313)" fill="none" stroke="#626bb1" stroke-linecap="round" stroke-linejoin="round" stroke-width="1"/>
                <path id="Path_5618" data-name="Path 5618" d="M0,7S3.672,1.4,6.5,0" transform="translate(103.725 9.626)" fill="none" stroke="#626bb1" stroke-linecap="round" stroke-linejoin="round" stroke-width="1"/>
                <line id="Line_243" data-name="Line 243" x2="1.572" y2="2.61" transform="translate(68.195 64.494)" fill="none" stroke="#626bb1" stroke-linecap="round" stroke-linejoin="round" stroke-width="1"/>
                <line id="Line_244" data-name="Line 244" x2="0.613" y2="0.904" transform="translate(72.744 67.104)" fill="none" stroke="#626bb1" stroke-linecap="round" stroke-linejoin="round" stroke-width="1"/>
                <ellipse id="Ellipse_149" data-name="Ellipse 149" cx="6.535" cy="6.535" rx="6.535" ry="6.535" transform="translate(76.06 28.936)" fill="none" stroke="#626bb1" stroke-width="1"/>
              </g>
            </g>
            <g id="Mask_Group_8" data-name="Mask Group 8" transform="translate(82.03 27.636)" clip-path="url(#clip-path-6)">
              <path id="Path_5600" data-name="Path 5600" d="M0,5.092C0,7.448,1.361,9.357,3.04,9.357S6.08,7.448,6.08,5.092,5.769-.036,3.216,0C.216.084,0,2.736,0,5.092" transform="translate(5.092 1.949)" fill="#484f81"/>
              <path id="Path_5601" data-name="Path 5601" d="M0,.987c0,.545.195.987.435.987S.871,1.532.871.987.676,0,.435,0,0,.442,0,.987" transform="translate(9.344 5.358)" fill="#fff"/>
            </g>
          </g>
        </g>
      </g>
    </g>
  </g>
</svg>
